# Blender 4.1.1
# www.blender.org
mtllib level2path1.mtl
o Cube
v 3.000000 -0.323983 -2.989153
v 3.000000 -0.717906 -2.919693
v 3.000000 0.717906 2.919693
v 3.000000 0.323983 2.989153
v -3.000000 -0.323983 -2.989153
v -3.000000 -0.717906 -2.919693
v -3.000000 0.717906 2.919693
v -3.000000 0.323983 2.989153
v 3.000000 0.323983 15.867070
v -3.000000 0.323983 15.867073
v 3.000000 0.717906 15.867071
v -3.000000 0.717906 15.867069
v -3.000000 0.323983 15.867073
v 3.000000 0.323983 15.867070
v 3.000000 0.717906 15.867071
v -3.000000 0.717906 15.867069
v 0.000000 0.323983 17.919415
v 0.000000 0.717906 17.919695
v 0.000000 0.323983 17.919415
v 0.000000 0.717906 17.919695
v 2.452592 0.321925 24.722799
v 8.452592 0.321924 20.618111
v 2.452592 0.715848 24.723360
v 8.452592 0.715847 20.618111
v -8.452591 0.321957 20.618118
v -2.452592 0.321957 24.722799
v -8.452591 0.715880 20.618109
v -2.452592 0.715880 24.723360
v -2.452592 0.715880 24.723360
v -8.452591 0.715880 20.618109
v -2.452592 0.321957 24.722799
v -8.452591 0.321957 20.618118
v -2.452592 0.715880 24.723360
v -8.452591 0.715880 20.618109
v -2.452592 0.321957 24.722799
v -8.452591 0.321957 20.618118
v -8.452591 0.321957 20.618118
v -2.452592 0.321957 24.722799
v -8.452591 0.715880 20.618109
v -2.452592 0.715880 24.723360
v -2.452592 0.715880 24.723360
v -8.452591 0.715880 20.618109
v -2.452592 0.321957 24.722799
v -8.452591 0.321957 20.618118
v -12.051744 5.630083 37.885662
v -18.051744 5.630083 33.780411
v -12.051744 5.236160 37.885101
v -18.051744 5.236160 33.780422
v 2.452592 0.321925 24.722799
v 8.452592 0.321924 20.618111
v 2.452592 0.715848 24.723360
v 8.452592 0.715847 20.618111
v 2.452592 0.321925 24.722799
v 8.452592 0.321924 20.618111
v 2.452592 0.715848 24.723360
v 8.452592 0.715847 20.618111
v 12.051750 5.235972 37.885098
v 18.051750 5.235972 33.780411
v 12.051750 5.629896 37.885658
v 18.051750 5.629895 33.780415
v -16.004337 5.626033 43.662945
v -22.004337 5.626033 39.557693
v -16.004337 5.232110 43.662380
v -22.004337 5.232109 39.557705
v 16.004343 5.231858 43.662384
v 22.004343 5.231858 39.557693
v 16.004343 5.625782 43.662945
v 22.004343 5.625781 39.557693
vn -0.0000 0.9848 -0.1736
vn -0.0000 -1.0000 -0.0000
vn -1.0000 -0.0000 -0.0000
vn -0.0000 -0.9848 0.1736
vn 1.0000 -0.0000 -0.0000
vn -0.0000 -0.1736 -0.9848
vn -0.0000 1.0000 -0.0000
vn -0.9407 -0.0004 0.3391
vn 0.0002 -1.0000 -0.0002
vn 0.6569 -0.0000 -0.7539
vn -0.0002 -1.0000 -0.0002
vn 0.0002 1.0000 0.0002
vn -0.6569 -0.0000 -0.7539
vn 0.9407 -0.0004 0.3391
vn -0.0002 1.0000 0.0002
vn -0.8080 -0.0000 -0.5892
vn -0.8253 -0.0000 -0.5647
vn 0.1631 0.9574 -0.2384
vn 0.8078 -0.0008 0.5894
vn -0.1631 -0.9574 0.2385
vn 0.8080 -0.0000 -0.5892
vn -0.8253 -0.0008 0.5647
vn -0.1631 0.9574 -0.2384
vn -0.8078 -0.0008 0.5894
vn 0.1631 -0.9574 0.2385
vn -0.5647 -0.0006 0.8253
vn 0.8253 -0.0008 0.5647
vn 0.0003 -1.0000 -0.0005
vn -0.0003 1.0000 0.0005
vn 0.5647 -0.0006 0.8253
vn -0.0003 -1.0000 -0.0005
vn 0.8253 -0.0000 -0.5647
vn 0.0003 1.0000 0.0005
vt 0.625000 0.500000
vt 0.875000 0.500000
vt 0.875000 0.750000
vt 0.625000 0.750000
vt 0.125000 0.750000
vt 0.375000 0.750000
vt 0.125000 0.750000
vt 0.375000 0.000000
vt 0.625000 0.000000
vt 0.625000 0.250000
vt 0.375000 0.250000
vt 0.125000 0.500000
vt 0.375000 0.500000
vt 0.375000 0.000000
vt 0.750000 0.750000
vt 0.250000 0.750000
vt 0.375000 0.375000
vt 0.000000 0.000000
s 0
usemtl Material
f 1/1/1 5/2/1 7/3/1 3/4/1
f 8/5/2 4/6/2 14/6/2 13/7/2
f 8/8/3 7/9/3 5/10/3 6/11/3
f 6/12/4 2/13/4 4/6/4 8/5/4
f 2/13/5 1/1/5 3/4/5 4/6/5
f 6/11/6 5/10/6 1/1/6 2/13/6
f 3/4/7 7/3/7 16/3/7 15/4/7
f 4/6/5 3/4/5 15/4/5 14/6/5
f 7/9/3 8/8/3 13/14/3 16/9/3
f 15/4/1 18/15/1 20/15/1 11/4/1
f 17/16/1 14/6/1 9/6/1 19/16/1
f 15/4/7 16/3/7 18/15/7
f 20/15/8 19/17/8 21/17/8 23/15/8
f 13/7/2 14/6/2 17/16/2
f 13/7/1 17/16/1 19/16/1 10/7/1
f 18/15/1 16/3/1 12/3/1 20/15/1
f 16/9/1 13/14/1 10/14/1 12/9/1
f 10/7/9 19/16/9 26/16/9 25/7/9
f 36/18/1 35/18/1 43/18/1 44/18/1
f 14/6/1 15/4/1 11/4/1 9/6/1
f 9/6/10 11/4/10 24/4/10 22/6/10
f 19/16/11 9/6/11 22/6/11 21/16/11
f 11/4/12 20/15/12 23/15/12 24/4/12
f 25/7/1 26/16/1 31/16/1 32/7/1
f 12/9/13 10/14/13 25/14/13 27/9/13
f 19/17/14 20/15/14 28/15/14 26/17/14
f 20/15/15 12/3/15 27/3/15 28/15/15
f 29/15/1 30/3/1 39/3/1 40/15/1
f 26/17/1 28/15/1 29/15/1 31/17/1
f 27/9/1 25/14/1 32/14/1 30/9/1
f 28/15/1 27/3/1 30/3/1 29/15/1
f 34/18/1 33/18/1 41/18/1 42/18/1
f 42/18/16 44/18/16 48/18/16 46/18/16
f 34/18/1 36/18/1 44/18/1 42/18/1
f 32/7/1 31/16/1 38/16/1 37/7/1
f 30/9/1 32/14/1 37/14/1 39/9/1
f 35/18/1 33/18/1 41/18/1 43/18/1
f 31/17/1 29/15/1 40/15/1 38/17/1
f 46/18/17 48/18/17 64/18/17 62/18/17
f 41/18/18 42/18/18 46/18/18 45/18/18
f 43/18/19 41/18/19 45/18/19 47/18/19
f 44/18/20 43/18/20 47/18/20 48/18/20
f 23/15/1 21/17/1 49/17/1 51/15/1
f 21/16/1 22/6/1 50/6/1 49/16/1
f 22/6/1 24/4/1 52/4/1 50/6/1
f 24/4/1 23/15/1 51/15/1 52/4/1
f 49/16/1 50/6/1 54/6/1 53/16/1
f 54/6/21 56/4/21 60/4/21 58/6/21
f 50/6/1 52/4/1 56/4/1 54/6/1
f 52/4/1 51/15/1 55/15/1 56/4/1
f 51/15/1 49/17/1 53/17/1 55/15/1
f 59/15/22 57/17/22 65/17/22 67/15/22
f 56/4/23 55/15/23 59/15/23 60/4/23
f 55/15/24 53/17/24 57/17/24 59/15/24
f 53/16/25 54/6/25 58/6/25 57/16/25
f 63/18/26 61/18/26 62/18/26 64/18/26
f 47/18/27 45/18/27 61/18/27 63/18/27
f 48/18/28 47/18/28 63/18/28 64/18/28
f 45/18/29 46/18/29 62/18/29 61/18/29
f 66/6/30 68/4/30 67/15/30 65/17/30
f 57/16/31 58/6/31 66/6/31 65/16/31
f 58/6/32 60/4/32 68/4/32 66/6/32
f 60/4/33 59/15/33 67/15/33 68/4/33
