# Blender 3.6.4
# www.blender.org
mtllib path.mtl
o Cube
v -4.000000 -1.945024 4.612958
v -4.000000 -1.475178 4.783968
v -4.000000 1.475178 -4.783968
v -4.000000 1.945024 -4.612958
v 4.000000 -1.945024 4.612958
v 4.000000 -1.475178 4.783968
v 4.000000 1.475178 -4.783968
v 4.000000 1.945024 -4.612958
v -4.000000 1.945024 -4.612958
v -4.000000 1.475178 -4.783968
v 4.000000 1.475178 -4.783968
v 4.000000 1.945024 -4.612958
v -4.000000 1.945024 -4.612958
v -4.000000 1.475178 -4.783968
v 4.000000 1.475178 -4.783968
v 4.000000 1.945024 -4.612958
v -4.097405 1.955109 -14.612479
v 3.902595 1.955109 -14.612479
v 3.904259 1.485090 -14.612592
v -4.095747 1.485090 -14.613165
v 3.998285 1.945202 -4.789011
v -4.001669 1.945197 -4.784290
v -4.049537 1.950153 -9.698384
v -4.047873 1.480134 -9.698566
v -15.047283 1.441158 -9.591460
v -15.095156 1.446114 -14.506060
v -15.096815 1.916132 -14.505373
v -15.048946 1.911176 -9.591279
v -14.508070 1.913093 -9.596546
v -14.556492 1.918047 -14.510635
v -15.096815 1.916132 -14.505373
v -15.048946 1.911176 -9.591279
v -14.508070 1.913093 -9.596546
v -14.556492 1.918047 -14.510635
v -15.100348 2.916126 -14.504330
v -15.052480 2.911170 -9.590236
v -14.511603 2.913086 -9.595502
v -14.560025 2.918040 -14.509591
v -11.488352 1.928919 -14.540509
v -11.487118 1.458899 -14.541191
v -15.096815 1.916132 -19.505371
v -15.095156 1.446114 -19.506060
v -11.487118 1.458899 -19.541191
v -14.556492 1.918047 -19.510635
v -11.488352 1.928919 -19.540510
v -15.047283 1.441158 -9.591460
v -15.095156 1.446114 -14.506060
v -15.096815 1.916132 -14.505373
v -15.048946 1.911176 -9.591279
v -15.096815 1.916132 -19.505371
v -15.095156 1.446114 -19.506060
v -19.601362 1.441158 -9.591460
v -19.649235 1.446114 -14.506060
v -19.650894 1.916132 -14.505373
v -19.603025 1.911176 -9.591279
v -19.650894 1.916132 -19.505371
v -19.649235 1.446114 -19.506060
v -20.150894 1.916132 -14.505373
v -20.149235 1.446114 -14.506060
v -20.150894 1.916132 -19.505371
v -20.149235 1.446114 -19.506060
v -19.650894 2.916132 -19.505373
v -19.650894 2.916132 -14.505373
v -20.150894 2.916132 -19.505373
v -20.150894 2.916132 -14.505373
v -29.601362 1.441158 -9.591460
v -29.603025 1.911176 -9.591279
v -29.634703 1.914455 -12.843113
v -19.634693 1.914455 -12.842307
v -29.633047 1.444438 -12.844309
v -19.633047 1.444438 -12.844204
vn -1.0000 -0.0000 -0.0000
vn -0.0000 0.9397 0.3420
vn 1.0000 -0.0000 -0.0000
vn -0.0000 -0.3420 0.9397
vn -0.0000 -0.9397 -0.3420
vn 0.9999 0.0035 -0.0097
vn -0.0000 -1.0000 -0.0010
vn -0.0000 1.0000 0.0010
vn -0.9999 -0.0035 0.0097
vn -0.0000 0.0009 -1.0000
vn -0.0097 0.0014 -1.0000
vn 0.0035 -1.0000 -0.0010
vn 0.0097 -0.0004 1.0000
vn -0.0035 1.0000 0.0010
vn 0.9999 0.0035 -0.0098
vn -0.0097 0.0010 -1.0000
vn 0.0097 -0.0010 1.0000
vn 0.0035 -1.0000 -0.0000
vn -0.0035 1.0000 -0.0000
vn 1.0000 0.0026 -0.0000
vn -0.0000 0.0015 -1.0000
vn -0.0000 1.0000 -0.0000
vn -0.0000 -0.0004 1.0000
vn -0.0000 -0.0000 -1.0000
vn -0.0000 -1.0000 -0.0000
vn -1.0000 -0.0035 -0.0000
vn -0.0000 -0.0015 1.0000
vn -0.0000 -0.0000 1.0000
vn -0.0000 0.0033 -1.0000
vt 0.375000 0.000000
vt 0.625000 0.000000
vt 0.625000 0.250000
vt 0.375000 0.250000
vt 0.875000 0.500000
vt 0.625000 0.500000
vt 0.375000 0.500000
vt 0.625000 0.750000
vt 0.375000 0.750000
vt 0.625000 1.000000
vt 0.375000 1.000000
vt 0.125000 0.500000
vt 0.125000 0.750000
vt 0.875000 0.750000
s 0
f 1/1/1 2/2/1 4/3/1 3/4/1
f 4/5/2 8/6/2 12/6/2 9/5/2
f 7/7/3 8/6/3 6/8/3 5/9/3
f 5/9/4 6/8/4 2/10/4 1/11/4
f 3/12/5 7/7/5 5/9/5 1/13/5
f 8/6/2 4/5/2 2/14/2 6/8/2
f 9/5/2 12/6/2 16/6/2 13/5/2
f 3/4/2 4/3/2 9/3/2 10/4/2
f 8/6/2 7/7/2 11/7/2 12/6/2
f 7/7/2 3/12/2 10/12/2 11/7/2
f 16/6/6 15/7/6 21/6/6
f 10/4/2 9/3/2 13/3/2 14/4/2
f 12/6/2 11/7/2 15/7/2 16/6/2
f 11/7/2 10/12/2 14/12/2 15/7/2
f 14/4/7 24/4/7 20/4/7 19/7/7 15/7/7
f 13/5/8 16/6/8 21/6/8 18/6/8 17/5/8 23/5/8 22/5/8
f 14/4/9 22/3/9 23/3/9 24/4/9
f 17/3/10 18/6/10 19/7/10 20/4/10
f 42/4/2 26/4/2 47/4/2 51/4/2
f 22/3/9 14/4/9 13/3/9
f 21/6/6 15/7/6 19/7/6 18/6/6
f 17/3/11 20/4/11 40/4/11 39/3/11
f 20/4/12 24/4/12 25/4/12 26/4/12 40/4/12
f 24/4/13 23/3/13 29/3/13 28/3/13 25/4/13
f 23/5/14 17/5/14 39/5/14 30/5/14 29/5/14
f 30/5/2 29/5/2 33/5/2 34/5/2
f 29/5/15 30/5/15 38/5/15 37/5/15
f 28/3/2 27/3/2 31/3/2 32/3/2
f 37/5/14 38/5/14 35/5/14 36/5/14
f 27/3/9 28/3/9 36/3/9 35/3/9
f 30/3/16 27/3/16 35/3/16 38/3/16
f 28/3/17 29/3/17 37/3/17 36/3/17
f 45/3/11 43/4/11 42/4/11 41/3/11 44/3/11
f 40/4/18 26/4/18 42/4/18 43/4/18
f 27/3/19 30/3/19 44/3/19 41/3/19
f 39/3/20 40/4/20 43/4/20 45/3/20
f 30/5/19 39/5/19 45/5/19 44/5/19
f 28/3/2 27/3/2 48/3/2 49/3/2
f 50/3/21 51/4/21 57/4/21 56/3/21
f 48/3/22 50/3/22 56/3/22 54/3/22
f 26/4/2 25/4/2 46/4/2 47/4/2
f 27/3/2 41/3/2 50/3/2 48/3/2
f 25/4/2 28/3/2 49/3/2 46/4/2
f 41/3/2 42/4/2 51/4/2 50/3/2
f 52/4/23 55/3/23 67/3/23 66/4/23
f 56/3/24 60/3/24 64/3/24 62/3/24
f 49/3/8 48/3/8 54/3/8 69/3/8 55/3/8
f 47/4/7 46/4/7 52/4/7 71/4/7 53/4/7
f 51/4/25 47/4/25 53/4/25 57/4/25
f 46/4/23 49/3/23 55/3/23 52/4/23
f 59/4/26 58/3/26 60/3/26 61/4/26
f 56/3/21 57/4/21 61/4/21 60/3/21
f 57/4/25 53/4/25 59/4/25 61/4/25
f 53/4/27 54/3/27 58/3/27 59/4/27
f 63/3/22 62/3/22 64/3/22 65/3/22
f 54/3/3 56/3/3 62/3/3 63/3/3
f 58/3/28 54/3/28 63/3/28 65/3/28
f 60/3/1 58/3/1 65/3/1 64/3/1
f 66/4/9 67/3/9 68/3/9 70/4/9
f 55/3/8 69/3/8 68/3/8 67/3/8
f 71/4/29 70/4/29 68/3/29 69/3/29
f 70/4/7 71/4/7 52/4/7 66/4/7
f 71/4/9 69/3/9 54/3/9 53/4/9
